<?xml version="1.0" encoding="UTF-8" standalone="no"?>
<svg width="24" height="24" viewBox="0 0 24 24" fill="none" xmlns="http://www.w3.org/2000/svg">
  <path d="M12 2C6.48 2 2 4.02 2 6.5V17.5C2 19.98 6.48 22 12 22C17.52 22 22 19.98 22 17.5V6.5C22 4.02 17.52 2 12 2ZM12 4C16.42 4 20 5.79 20 6.5C20 7.21 16.42 9 12 9C7.58 9 4 7.21 4 6.5C4 5.79 7.58 4 12 4ZM4 8.99C5.82 10.07 8.77 10.5 12 10.5C15.23 10.5 18.18 10.07 20 8.99V12.5C20 13.21 16.42 15 12 15C7.58 15 4 13.21 4 12.5V8.99ZM4 15C5.82 16.07 8.77 16.5 12 16.5C15.23 16.5 18.18 16.07 20 15V17.5C20 18.21 16.42 20 12 20C7.58 20 4 18.21 4 17.5V15Z" fill="#C5C5C5"/>
</svg>
