<?xml version="1.0" encoding="UTF-8" standalone="no"?>
<svg width="1200" height="630" viewBox="0 0 1200 630" xmlns="http://www.w3.org/2000/svg">
  <!-- Background gradient -->
  <defs>
    <linearGradient id="bg-gradient" x1="0%" y1="0%" x2="100%" y2="100%">
      <stop offset="0%" stop-color="#0d1117" />
      <stop offset="100%" stop-color="#1e293b" />
    </linearGradient>
    <linearGradient id="table-header-gradient" x1="0%" y1="0%" x2="100%" y2="100%">
      <stop offset="0%" stop-color="#4338ca" />
      <stop offset="100%" stop-color="#6d28d9" />
    </linearGradient>
    <linearGradient id="nebulus-row-gradient" x1="0%" y1="0%" x2="100%" y2="100%">
      <stop offset="0%" stop-color="#6d28d9" opacity="0.2" />
      <stop offset="100%" stop-color="#8b5cf6" opacity="0.1" />
    </linearGradient>
  </defs>

  <!-- Background -->
  <rect width="1200" height="630" fill="url(#bg-gradient)" />

  <!-- Title -->
  <text x="600" y="80" font-family="Arial, sans-serif" font-size="48" font-weight="bold" text-anchor="middle" fill="white">NebulusDB vs. Alternatives</text>

  <!-- Comparison Table -->
  <!-- Table Headers -->
  <rect x="150" y="120" width="200" height="60" fill="url(#table-header-gradient)" />
  <rect x="350" y="120" width="200" height="60" fill="url(#table-header-gradient)" />
  <rect x="550" y="120" width="200" height="60" fill="url(#table-header-gradient)" />
  <rect x="750" y="120" width="200" height="60" fill="url(#table-header-gradient)" />
  <rect x="950" y="120" width="100" height="60" fill="url(#table-header-gradient)" />

  <text x="250" y="160" font-family="Arial, sans-serif" font-size="24" font-weight="bold" text-anchor="middle" fill="white">Feature</text>
  <text x="450" y="160" font-family="Arial, sans-serif" font-size="24" font-weight="bold" text-anchor="middle" fill="white">NebulusDB</text>
  <text x="650" y="160" font-family="Arial, sans-serif" font-size="24" font-weight="bold" text-anchor="middle" fill="white">PouchDB</text>
  <text x="850" y="160" font-family="Arial, sans-serif" font-size="24" font-weight="bold" text-anchor="middle" fill="white">LokiJS</text>
  <text x="1000" y="160" font-family="Arial, sans-serif" font-size="24" font-weight="bold" text-anchor="middle" fill="white">Dexie</text>

  <!-- Row 1 -->
  <rect x="150" y="180" width="200" height="50" fill="#1e293b" />
  <rect x="350" y="180" width="200" height="50" fill="url(#nebulus-row-gradient)" />
  <rect x="550" y="180" width="200" height="50" fill="#1e293b" />
  <rect x="750" y="180" width="200" height="50" fill="#1e293b" />
  <rect x="950" y="180" width="100" height="50" fill="#1e293b" />

  <text x="250" y="210" font-family="Arial, sans-serif" font-size="20" text-anchor="middle" fill="white">TypeScript-first</text>
  <text x="450" y="210" font-family="Arial, sans-serif" font-size="20" text-anchor="middle" fill="#10b981">✓</text>
  <text x="650" y="210" font-family="Arial, sans-serif" font-size="20" text-anchor="middle" fill="#ef4444">✗</text>
  <text x="850" y="210" font-family="Arial, sans-serif" font-size="20" text-anchor="middle" fill="#f59e0b">~</text>
  <text x="1000" y="210" font-family="Arial, sans-serif" font-size="20" text-anchor="middle" fill="#10b981">✓</text>

  <!-- Row 2 -->
  <rect x="150" y="230" width="200" height="50" fill="#1e293b" />
  <rect x="350" y="230" width="200" height="50" fill="url(#nebulus-row-gradient)" />
  <rect x="550" y="230" width="200" height="50" fill="#1e293b" />
  <rect x="750" y="230" width="200" height="50" fill="#1e293b" />
  <rect x="950" y="230" width="100" height="50" fill="#1e293b" />

  <text x="250" y="260" font-family="Arial, sans-serif" font-size="20" text-anchor="middle" fill="white">Reactive Queries</text>
  <text x="450" y="260" font-family="Arial, sans-serif" font-size="20" text-anchor="middle" fill="#10b981">✓</text>
  <text x="650" y="260" font-family="Arial, sans-serif" font-size="20" text-anchor="middle" fill="#ef4444">✗</text>
  <text x="850" y="260" font-family="Arial, sans-serif" font-size="20" text-anchor="middle" fill="#f59e0b">~</text>
  <text x="1000" y="260" font-family="Arial, sans-serif" font-size="20" text-anchor="middle" fill="#f59e0b">~</text>

  <!-- Row 3 -->
  <rect x="150" y="280" width="200" height="50" fill="#1e293b" />
  <rect x="350" y="280" width="200" height="50" fill="url(#nebulus-row-gradient)" />
  <rect x="550" y="280" width="200" height="50" fill="#1e293b" />
  <rect x="750" y="280" width="200" height="50" fill="#1e293b" />
  <rect x="950" y="280" width="100" height="50" fill="#1e293b" />

  <text x="250" y="310" font-family="Arial, sans-serif" font-size="20" text-anchor="middle" fill="white">Plugin Architecture</text>
  <text x="450" y="310" font-family="Arial, sans-serif" font-size="20" text-anchor="middle" fill="#10b981">✓</text>
  <text x="650" y="310" font-family="Arial, sans-serif" font-size="20" text-anchor="middle" fill="#f59e0b">~</text>
  <text x="850" y="310" font-family="Arial, sans-serif" font-size="20" text-anchor="middle" fill="#ef4444">✗</text>
  <text x="1000" y="310" font-family="Arial, sans-serif" font-size="20" text-anchor="middle" fill="#ef4444">✗</text>

  <!-- Row 4 -->
  <rect x="150" y="330" width="200" height="50" fill="#1e293b" />
  <rect x="350" y="330" width="200" height="50" fill="url(#nebulus-row-gradient)" />
  <rect x="550" y="330" width="200" height="50" fill="#1e293b" />
  <rect x="750" y="330" width="200" height="50" fill="#1e293b" />
  <rect x="950" y="330" width="100" height="50" fill="#1e293b" />

  <text x="250" y="360" font-family="Arial, sans-serif" font-size="20" text-anchor="middle" fill="white">Multiple Adapters</text>
  <text x="450" y="360" font-family="Arial, sans-serif" font-size="20" text-anchor="middle" fill="#10b981">✓</text>
  <text x="650" y="360" font-family="Arial, sans-serif" font-size="20" text-anchor="middle" fill="#10b981">✓</text>
  <text x="850" y="360" font-family="Arial, sans-serif" font-size="20" text-anchor="middle" fill="#f59e0b">~</text>
  <text x="1000" y="360" font-family="Arial, sans-serif" font-size="20" text-anchor="middle" fill="#ef4444">✗</text>

  <!-- Row 5 -->
  <rect x="150" y="380" width="200" height="50" fill="#1e293b" />
  <rect x="350" y="380" width="200" height="50" fill="url(#nebulus-row-gradient)" />
  <rect x="550" y="380" width="200" height="50" fill="#1e293b" />
  <rect x="750" y="380" width="200" height="50" fill="#1e293b" />
  <rect x="950" y="380" width="100" height="50" fill="#1e293b" />

  <text x="250" y="410" font-family="Arial, sans-serif" font-size="20" text-anchor="middle" fill="white">WebAssembly Support</text>
  <text x="450" y="410" font-family="Arial, sans-serif" font-size="20" text-anchor="middle" fill="#10b981">✓</text>
  <text x="650" y="410" font-family="Arial, sans-serif" font-size="20" text-anchor="middle" fill="#ef4444">✗</text>
  <text x="850" y="410" font-family="Arial, sans-serif" font-size="20" text-anchor="middle" fill="#ef4444">✗</text>
  <text x="1000" y="410" font-family="Arial, sans-serif" font-size="20" text-anchor="middle" fill="#ef4444">✗</text>

  <!-- Row 6 -->
  <rect x="150" y="430" width="200" height="50" fill="#1e293b" />
  <rect x="350" y="430" width="200" height="50" fill="url(#nebulus-row-gradient)" />
  <rect x="550" y="430" width="200" height="50" fill="#1e293b" />
  <rect x="750" y="430" width="200" height="50" fill="#1e293b" />
  <rect x="950" y="430" width="100" height="50" fill="#1e293b" />

  <text x="250" y="460" font-family="Arial, sans-serif" font-size="20" text-anchor="middle" fill="white">Schema Validation</text>
  <text x="450" y="460" font-family="Arial, sans-serif" font-size="20" text-anchor="middle" fill="#10b981">✓</text>
  <text x="650" y="460" font-family="Arial, sans-serif" font-size="20" text-anchor="middle" fill="#ef4444">✗</text>
  <text x="850" y="460" font-family="Arial, sans-serif" font-size="20" text-anchor="middle" fill="#ef4444">✗</text>
  <text x="1000" y="460" font-family="Arial, sans-serif" font-size="20" text-anchor="middle" fill="#10b981">✓</text>

  <!-- Legend -->
  <text x="250" y="520" font-family="Arial, sans-serif" font-size="20" text-anchor="middle" fill="white">Legend:</text>
  <text x="350" y="520" font-family="Arial, sans-serif" font-size="20" text-anchor="middle" fill="#10b981">✓</text>
  <text x="380" y="520" font-family="Arial, sans-serif" font-size="20" text-anchor="start" fill="white">Full Support</text>
  <text x="550" y="520" font-family="Arial, sans-serif" font-size="20" text-anchor="middle" fill="#f59e0b">~</text>
  <text x="580" y="520" font-family="Arial, sans-serif" font-size="20" text-anchor="start" fill="white">Partial Support</text>
  <text x="750" y="520" font-family="Arial, sans-serif" font-size="20" text-anchor="middle" fill="#ef4444">✗</text>
  <text x="780" y="520" font-family="Arial, sans-serif" font-size="20" text-anchor="start" fill="white">No Support</text>

  <!-- Note -->
  <text x="600" y="570" font-family="Arial, sans-serif" font-size="16" text-anchor="middle" fill="#9ca3af">Comparison based on features available as of April 2024</text>
</svg>
