<?xml version="1.0" encoding="UTF-8" standalone="no"?>
<svg width="1440" height="800" viewBox="0 0 1440 800" preserveAspectRatio="xMidYMid slice" fill="none" xmlns="http://www.w3.org/2000/svg">
  <!-- Background gradient -->
  <defs>
    <linearGradient id="bg-gradient" x1="0%" y1="0%" x2="100%" y2="100%">
      <stop offset="0%" stop-color="#0a0a1a" />
      <stop offset="100%" stop-color="#1a1a3a" />
    </linearGradient>
    
    <!-- Cloud gradients -->
    <radialGradient id="cloud1" cx="50%" cy="50%" r="50%" fx="50%" fy="50%">
      <stop offset="0%" stop-color="rgba(255,255,255,0.9)" />
      <stop offset="70%" stop-color="rgba(255,255,255,0.6)" />
      <stop offset="100%" stop-color="rgba(255,255,255,0)" />
    </radialGradient>
    
    <radialGradient id="cloud2" cx="50%" cy="50%" r="50%" fx="50%" fy="50%">
      <stop offset="0%" stop-color="rgba(220,220,255,0.8)" />
      <stop offset="70%" stop-color="rgba(220,220,255,0.5)" />
      <stop offset="100%" stop-color="rgba(220,220,255,0)" />
    </radialGradient>
    
    <radialGradient id="cloud3" cx="50%" cy="50%" r="50%" fx="50%" fy="50%">
      <stop offset="0%" stop-color="rgba(200,200,240,0.7)" />
      <stop offset="70%" stop-color="rgba(200,200,240,0.4)" />
      <stop offset="100%" stop-color="rgba(200,200,240,0)" />
    </radialGradient>
    
    <!-- Nebulus effects -->
    <radialGradient id="nebulus1" cx="30%" cy="50%" r="50%" fx="30%" fy="50%">
      <stop offset="0%" stop-color="rgba(102,51,153,0.3)" />
      <stop offset="100%" stop-color="rgba(102,51,153,0)" />
    </radialGradient>
    
    <radialGradient id="nebulus2" cx="70%" cy="50%" r="50%" fx="70%" fy="50%">
      <stop offset="0%" stop-color="rgba(51,153,255,0.3)" />
      <stop offset="100%" stop-color="rgba(51,153,255,0)" />
    </radialGradient>
    
    <!-- Star pattern -->
    <pattern id="stars" x="0" y="0" width="200" height="200" patternUnits="userSpaceOnUse">
      <circle cx="10" cy="10" r="1" fill="rgba(255,255,255,0.8)" />
      <circle cx="30" cy="40" r="0.8" fill="rgba(255,255,255,0.6)" />
      <circle cx="70" cy="30" r="1.2" fill="rgba(255,255,255,0.7)" />
      <circle cx="100" cy="70" r="0.6" fill="rgba(255,255,255,0.5)" />
      <circle cx="150" cy="30" r="1" fill="rgba(255,255,255,0.7)" />
      <circle cx="180" cy="90" r="0.8" fill="rgba(255,255,255,0.6)" />
      <circle cx="120" cy="120" r="1.2" fill="rgba(255,255,255,0.8)" />
      <circle cx="50" cy="150" r="0.7" fill="rgba(255,255,255,0.5)" />
      <circle cx="170" cy="170" r="1" fill="rgba(255,255,255,0.7)" />
    </pattern>
    
    <!-- Grid pattern -->
    <pattern id="grid" x="0" y="0" width="40" height="40" patternUnits="userSpaceOnUse">
      <path d="M 40 0 L 0 0 0 40" fill="none" stroke="rgba(66,133,244,0.1)" stroke-width="1" />
    </pattern>
    
    <!-- Cloud filter -->
    <filter id="cloud-blur" x="-50%" y="-50%" width="200%" height="200%">
      <feGaussianBlur in="SourceGraphic" stdDeviation="10" />
    </filter>
  </defs>
  
  <!-- Main background -->
  <rect width="1440" height="800" fill="url(#bg-gradient)" />
  
  <!-- Nebulus effects -->
  <circle cx="480" cy="400" r="400" fill="url(#nebulus1)" />
  <circle cx="960" cy="400" r="400" fill="url(#nebulus2)" />
  
  <!-- Stars -->
  <rect width="1440" height="800" fill="url(#stars)" />
  
  <!-- Grid -->
  <rect width="1440" height="800" fill="url(#grid)" />
  
  <!-- Altocumulus Cloud Layer -->
  <g id="altocumulus-clouds" opacity="0.7">
    <!-- Row 1 of clouds -->
    <ellipse cx="200" cy="100" rx="80" ry="40" fill="url(#cloud1)" filter="url(#cloud-blur)" />
    <ellipse cx="350" cy="120" rx="70" ry="35" fill="url(#cloud2)" filter="url(#cloud-blur)" />
    <ellipse cx="500" cy="90" rx="90" ry="45" fill="url(#cloud1)" filter="url(#cloud-blur)" />
    <ellipse cx="650" cy="110" rx="75" ry="38" fill="url(#cloud3)" filter="url(#cloud-blur)" />
    <ellipse cx="800" cy="80" rx="85" ry="42" fill="url(#cloud2)" filter="url(#cloud-blur)" />
    <ellipse cx="950" cy="105" rx="65" ry="32" fill="url(#cloud1)" filter="url(#cloud-blur)" />
    <ellipse cx="1100" cy="95" rx="80" ry="40" fill="url(#cloud3)" filter="url(#cloud-blur)" />
    <ellipse cx="1250" cy="115" rx="75" ry="38" fill="url(#cloud2)" filter="url(#cloud-blur)" />
    <ellipse cx="1400" cy="85" rx="70" ry="35" fill="url(#cloud1)" filter="url(#cloud-blur)" />
    
    <!-- Row 2 of clouds -->
    <ellipse cx="150" cy="180" rx="75" ry="38" fill="url(#cloud3)" filter="url(#cloud-blur)" />
    <ellipse cx="300" cy="200" rx="85" ry="42" fill="url(#cloud1)" filter="url(#cloud-blur)" />
    <ellipse cx="450" cy="170" rx="65" ry="32" fill="url(#cloud2)" filter="url(#cloud-blur)" />
    <ellipse cx="600" cy="190" rx="80" ry="40" fill="url(#cloud3)" filter="url(#cloud-blur)" />
    <ellipse cx="750" cy="160" rx="70" ry="35" fill="url(#cloud1)" filter="url(#cloud-blur)" />
    <ellipse cx="900" cy="185" rx="90" ry="45" fill="url(#cloud2)" filter="url(#cloud-blur)" />
    <ellipse cx="1050" cy="175" rx="75" ry="38" fill="url(#cloud3)" filter="url(#cloud-blur)" />
    <ellipse cx="1200" cy="195" rx="85" ry="42" fill="url(#cloud1)" filter="url(#cloud-blur)" />
    <ellipse cx="1350" cy="165" rx="65" ry="32" fill="url(#cloud2)" filter="url(#cloud-blur)" />
  </g>
  
  <!-- Data particles -->
  <g id="particles">
    <circle cx="100" cy="300" r="3" fill="#4285f4" opacity="0.7" />
    <circle cx="300" cy="400" r="3" fill="#4285f4" opacity="0.5" />
    <circle cx="500" cy="350" r="3" fill="#4285f4" opacity="0.8" />
    <circle cx="700" cy="500" r="3" fill="#4285f4" opacity="0.6" />
    <circle cx="900" cy="450" r="3" fill="#4285f4" opacity="0.7" />
    <circle cx="1100" cy="350" r="3" fill="#4285f4" opacity="0.5" />
    <circle cx="1300" cy="400" r="3" fill="#4285f4" opacity="0.8" />
    <circle cx="200" cy="600" r="3" fill="#4285f4" opacity="0.5" />
    <circle cx="400" cy="550" r="3" fill="#4285f4" opacity="0.8" />
    <circle cx="600" cy="650" r="3" fill="#4285f4" opacity="0.6" />
    <circle cx="800" cy="600" r="3" fill="#4285f4" opacity="0.7" />
    <circle cx="1000" cy="550" r="3" fill="#4285f4" opacity="0.5" />
    <circle cx="1200" cy="650" r="3" fill="#4285f4" opacity="0.8" />
  </g>
  
  <!-- Data streams -->
  <g id="streams">
    <rect x="200" y="0" width="2" height="100" fill="url(#stream-gradient)" />
    <rect x="400" y="50" width="2" height="100" fill="url(#stream-gradient)" />
    <rect x="600" y="20" width="2" height="100" fill="url(#stream-gradient)" />
    <rect x="800" y="70" width="2" height="100" fill="url(#stream-gradient)" />
    <rect x="1000" y="30" width="2" height="100" fill="url(#stream-gradient)" />
    <rect x="1200" y="60" width="2" height="100" fill="url(#stream-gradient)" />
    <rect x="300" y="200" width="2" height="100" fill="url(#stream-gradient)" />
    <rect x="500" y="250" width="2" height="100" fill="url(#stream-gradient)" />
    <rect x="700" y="220" width="2" height="100" fill="url(#stream-gradient)" />
    <rect x="900" y="270" width="2" height="100" fill="url(#stream-gradient)" />
    <rect x="1100" y="230" width="2" height="100" fill="url(#stream-gradient)" />
  </g>
</svg>
