<?xml version="1.0" encoding="UTF-8"?>
<svg width="320" height="180" viewBox="0 0 320 180" fill="none" xmlns="http://www.w3.org/2000/svg">
  <defs>
    <linearGradient id="billowCloud" x1="0" y1="0" x2="320" y2="180" gradientUnits="userSpaceOnUse">
      <stop stop-color="#7ecbff"/>
      <stop offset="0.5" stop-color="#b6aaff"/>
      <stop offset="1" stop-color="#e0e7ff"/>
    </linearGradient>
    <radialGradient id="billowGlow" cx="0.5" cy="0.5" r="0.7">
      <stop offset="0%" stop-color="#fff" stop-opacity="0.7"/>
      <stop offset="100%" stop-color="#b6aaff" stop-opacity="0"/>
    </radialGradient>
    <filter id="shadow" x="-20%" y="-20%" width="140%" height="140%" filterUnits="userSpaceOnUse">
      <feDropShadow dx="0" dy="6" stdDeviation="8" flood-color="#b6aaff" flood-opacity="0.18"/>
    </filter>
  </defs>
  <!-- Billow cloud layers -->
  <ellipse cx="160" cy="120" rx="110" ry="38" fill="url(#billowCloud)" filter="url(#shadow)"/>
  <ellipse cx="110" cy="110" rx="50" ry="22" fill="url(#billowCloud)"/>
  <ellipse cx="210" cy="115" rx="60" ry="25" fill="url(#billowCloud)"/>
  <ellipse cx="180" cy="100" rx="40" ry="18" fill="url(#billowCloud)"/>
  <ellipse cx="140" cy="105" rx="35" ry="15" fill="url(#billowCloud)"/>
  <!-- Glow -->
  <ellipse cx="160" cy="110" rx="90" ry="30" fill="url(#billowGlow)"/>
  <!-- NebulusDB logo (star/nebulus) -->
  <g>
    <circle cx="160" cy="90" r="24" fill="#fff" fill-opacity="0.85"/>
    <g>
      <polygon points="160,74 163,86 176,86 165,93 169,106 160,98 151,106 155,93 144,86 157,86" fill="#7ecbff"/>
      <circle cx="160" cy="90" r="7" fill="#b6aaff"/>
      <circle cx="160" cy="90" r="3" fill="#fff"/>
    </g>
  </g>
  <!-- Sparkles -->
  <circle cx="120" cy="80" r="2" fill="#fff" fill-opacity="0.7"/>
  <circle cx="200" cy="70" r="1.5" fill="#fff" fill-opacity="0.6"/>
  <circle cx="180" cy="140" r="1.2" fill="#fff" fill-opacity="0.5"/>
  <circle cx="100" cy="130" r="1.5" fill="#fff" fill-opacity="0.5"/>
  <circle cx="220" cy="130" r="1.8" fill="#fff" fill-opacity="0.6"/>
</svg> 